# xmcd
#
# Track frame offsets:
#	150
#	17353
#	34960
#	51330
#	67237
#	82387
#	102588
#	114901
#	127879
#	139311
#	151164
#	160315
#	171001
#	179590
#	190350
#	204199
#	217870
#	231043
#	242932
#	257401
#	269826
#	288110
#
# Disc length: 4186 seconds
#
# Revision: 1
# Processed by: cddbd v1.5.2PL0 Copyright (c) Steve Scherf et al.
# Submitted via: EasyCDDAExtractor 2010.6.0.0
#
DISCID=43105816
DTITLE=Bessie Griffin - Even Me
DYEAR=2000
DGENRE=Gospel
TTITLE0=I Can Put My Trust In Jesus
TTITLE1=Going Through Lord
TTITLE2=Christ Is All
TTITLE3=Even Me
TTITLE4=Have You Any Time For Jesus
TTITLE5=The Old-Time Moan
TTITLE6=Blessed Are The Poor In Spirit
TTITLE7=I've Been Blessed and Brought Up By The Lord
TTITLE8=All Of My Burden
TTITLE9=Move Upstairs
TTITLE10=I Just Have To Call His Name
TTITLE11=He'll Work A Wonder
TTITLE12=Lead On
TTITLE13=Holy Manna
TTITLE14=Rock Of Ages
TTITLE15=Someday Somewhere
TTITLE16=What Jesus Is To Me
TTITLE17=Run While The Sun Is Shining
TTITLE18=What Makes A Man Turn His Back On God
TTITLE19=The Old Account 
TTITLE20=Someday He'll Make The Plan
TTITLE21=Too Close To Heaven
EXTD=
EXTT0=
EXTT1=
EXTT2=
EXTT3=
EXTT4=
EXTT5=
EXTT6=
EXTT7=
EXTT8=
EXTT9=
EXTT10=
EXTT11=
EXTT12=
EXTT13=
EXTT14=
EXTT15=
EXTT16=
EXTT17=
EXTT18=
EXTT19=
EXTT20=
EXTT21=
PLAYORDER=
